<?xml version="1.0" encoding="UTF-8"?>
<svg width="1024" height="1024" viewBox="0 0 1024 1024" xmlns="http://www.w3.org/2000/svg">
  <defs>
    <linearGradient id="g2" x1="0" y1="0" x2="0" y2="1">
      <stop offset="0%" stop-color="#0b1220"/>
      <stop offset="100%" stop-color="#0b1328"/>
    </linearGradient>
  </defs>

  <!-- Card -->
  <rect x="160" y="96" rx="64" ry="64" width="704" height="832"
        fill="url(#g2)" stroke="#e5e7eb" stroke-width="24"/>

  <!-- Corner pips -->
  <path d="M230 190c0-28 22-50 50-50c18 0 34 9 43 23c9-14 25-23 43-23c28 0 50 22 50 50c0 56-93 96-93 96s-93-40-93-96z"
        fill="#f43f5e"/>
  <g transform="rotate(180 832 832) translate(768 768)">
    <path d="M64 64c0-28 22-50 50-50c18 0 34 9 43 23c9-14 25-23 43-23c28 0 50 22 50 50c0 56-93 96-93 96s-93-40-93-96z"
          fill="#f43f5e"/>
  </g>

  <!-- Three wires -->
  <line x1="240" y1="380" x2="784" y2="380" stroke="#e5e7eb" stroke-width="18" stroke-linecap="round" fill="none"/>
  <line x1="240" y1="512" x2="784" y2="512" stroke="#e5e7eb" stroke-width="18" stroke-linecap="round" fill="none"/>
  <line x1="240" y1="644" x2="784" y2="644" stroke="#e5e7eb" stroke-width="18" stroke-linecap="round" fill="none"/>

  <!-- Single-qubit gate box -->
  <rect x="328" y="332" width="96" height="96" rx="12"
        fill="#22d3ee" stroke="#e5e7eb" stroke-width="18"/>

  <!-- 'H' glyph (lines) -->
  <line x1="352" y1="356" x2="352" y2="404" stroke="#e5e7eb" stroke-width="18" stroke-linecap="round"/>
  <line x1="400" y1="356" x2="400" y2="404" stroke="#e5e7eb" stroke-width="18" stroke-linecap="round"/>
  <line x1="352" y1="380" x2="400" y2="380" stroke="#e5e7eb" stroke-width="18" stroke-linecap="round"/>

  <!-- CNOT: control dot and target -->
  <circle cx="512" cy="512" r="16" fill="#e5e7eb"/>
  <line x1="512" y1="512" x2="512" y2="644" stroke="#e5e7eb" stroke-width="18" stroke-linecap="round" fill="none"/>
  <circle cx="512" cy="644" r="36" fill="none" stroke="#e5e7eb" stroke-width="18"/>
  <line x1="512" y1="620" x2="512" y2="668" stroke="#e5e7eb" stroke-width="18" stroke-linecap="round"/>
  <line x1="488" y1="644" x2="536" y2="644" stroke="#e5e7eb" stroke-width="18" stroke-linecap="round"/>
</svg>
